<?xml version="1.0" encoding="utf-8"?>
<!-- Generator: Adobe Illustrator 25.2.3, SVG Export Plug-In . SVG Version: 6.00 Build 0)  -->
<svg version="1.1" id="레이어_1" xmlns="http://www.w3.org/2000/svg" xmlns:xlink="http://www.w3.org/1999/xlink" x="0px"
	 y="0px" viewBox="0 0 200.5 200.5" style="enable-background:new 0 0 200.5 200.5;" xml:space="preserve">
<style type="text/css">
	.st0{fill:#FFEE1F;}
	.st1{fill:#FFFFFF;}
	.st2{fill:#222222;}
</style>
<path class="st0" d="M100.3,5C48.5,5,6.5,47,6.5,98.7c0,51.8,42,93.8,93.7,93.8c16.8,0,32.6-4.5,46.3-12.2l26.1,4.1
	c3.5,0,6.4-2.9,6.4-6.4l-3.6-23.2c11.7-15.6,18.6-35,18.6-56C194,47,152,5,100.3,5L100.3,5z"/>
<ellipse class="st1" cx="72.9" cy="79.8" rx="16.8" ry="23.1"/>
<path class="st2" d="M73.1,106.5C61.5,106.5,52,95.2,52,81.4s9.5-25.1,21.1-25.1s21.1,11.3,21.1,25.1S84.7,106.5,73.1,106.5z
	 M73.1,64.7c-7,0-12.7,7.5-12.7,16.7c0,9.2,5.7,16.7,12.7,16.7s12.7-7.5,12.7-16.7C85.8,72.2,80.1,64.7,73.1,64.7z"/>
<ellipse class="st2" cx="78.8" cy="81.4" rx="7.4" ry="9.2"/>
<ellipse class="st1" cx="119.2" cy="79.8" rx="16.8" ry="23.1"/>
<path class="st2" d="M120.5,106.5c-11.6,0-21.1-11.3-21.1-25.1s9.5-25.1,21.1-25.1s21.1,11.3,21.1,25.1S132.1,106.5,120.5,106.5z
	 M120.5,64.7c-7,0-12.7,7.5-12.7,16.7c0,9.2,5.7,16.7,12.7,16.7s12.7-7.5,12.7-16.7C133.2,72.2,127.5,64.7,120.5,64.7z"/>
<ellipse class="st2" cx="126.2" cy="81.4" rx="7.4" ry="9.2"/>
<path class="st2" d="M129,136.9H60.6c-2.7,0-4.9-2.2-4.9-4.9s2.2-4.9,4.9-4.9H129c2.7,0,4.9,2.2,4.9,4.9S131.7,136.9,129,136.9z"/>
<path class="st2" d="M142.3,151.6c-0.7,0-1.4-0.2-2-0.5c-0.5-0.3-11.2-6.4-11.2-20.6c0-13.6,6.9-19.4,7.7-20
	c1.8-1.4,4.5-1.1,5.9,0.7c1.4,1.8,1.1,4.4-0.7,5.9c-0.3,0.2-4.5,4-4.5,13.4c0,9.4,6.8,13.3,6.8,13.3c2,1.1,2.8,3.7,1.6,5.7
	C145.2,150.8,143.8,151.6,142.3,151.6z"/>
<path class="st2" d="M100.3,14.8c46.3,0,84,37.7,84,84c0,18.2-5.7,35.6-16.6,50.2l-2.5,3.3l0.6,4.1l2.7,17.6l-20.5-3.2l-3.4-0.5
	l-3,1.7c-12.6,7.2-26.9,10.9-41.4,10.9c-46.3,0-84-37.7-84-84C16.3,52.4,53.9,14.8,100.3,14.8 M100.3,5C48.5,5,6.5,47,6.5,98.7
	c0,51.8,42,93.8,93.7,93.8c16.8,0,32.6-4.5,46.3-12.2l26.1,4.1c3.5,0,6.4-2.9,6.4-6.4l-3.6-23.2c11.7-15.6,18.6-35,18.6-56
	C194,47,152,5,100.3,5L100.3,5z"/>
</svg>
